# xmcd CD database file
#
# Track frame offsets:
#        150
#        15857
#        31010
#        45493
#        56524
#        73047
#        88155
#        98611
#        115172
#        132895
#        148935
#
# Disc length: 2145 seconds
#
# Revision: 0
# Processed by: cddbd v1.5.2PL0 Copyright (c) Steve Scherf et al.
# Submitted via: CUERipper 2.1.2a
#
DISCID=88085f0b
DTITLE=Debra Lyn Neufeld - Bootleg
DYEAR=2006
DGENRE=Blues
TTITLE0=No One's Girl
TTITLE1=Some Girls Like
TTITLE2=Nothing To Bind You
TTITLE3=Love Junkie
TTITLE4=Sugar In Me
TTITLE5=Love Has Poisoned Me
TTITLE6=Bone Appetite
TTITLE7=Save This Heart
TTITLE8=Deep Lovin' Trouble
TTITLE9=Sweet Della Jones
TTITLE10=Sweet Pie Fruit (Deep Dish)
EXTD=
EXTT0=
EXTT1=
EXTT2=
EXTT3=
EXTT4=
EXTT5=
EXTT6=
EXTT7=
EXTT8=
EXTT9=
EXTT10=
PLAYORDER=
